<?xml version="1.0" encoding="UTF-8"?>
<svg version="1.1" xmlns="http://www.w3.org/2000/svg" width="82" height="52">
<path d="M0 0 C-0.75 6.75 -0.75 6.75 -3 9 C-3.99 9 -4.98 9 -6 9 C-5.71125 9.59425781 -5.4225 10.18851563 -5.125 10.80078125 C-2.20947139 17.31010381 -1.24620596 22.8822071 -2 30 C-2.495 30.99 -2.495 30.99 -3 32 C-1.35 32.66 0.3 33.32 2 34 C1.75 36.375 1.75 36.375 1 39 C-3.97697658 42.58054768 -11.08688003 41.37186908 -16.96142578 41.37060547 C-19.22896518 41.37495961 -21.4945259 41.41124315 -23.76171875 41.44921875 C-37.69542702 41.56041447 -37.69542702 41.56041447 -44 37 C-45.89236903 33.85723215 -46.20338476 31.66092571 -46 28 C-44.68 28 -43.36 28 -42 28 C-41.67 29.32 -41.34 30.64 -41 32 C-40.79503906 31.36191406 -40.59007812 30.72382812 -40.37890625 30.06640625 C-40.10949219 29.24011719 -39.84007812 28.41382813 -39.5625 27.5625 C-39.29566406 26.73878906 -39.02882813 25.91507813 -38.75390625 25.06640625 C-38 23 -38 23 -37 22 C-36.92728259 19.64686445 -36.91629132 17.29166332 -36.9375 14.9375 C-36.94652344 13.64714844 -36.95554687 12.35679688 -36.96484375 11.02734375 C-36.97644531 10.02832031 -36.98804688 9.02929688 -37 8 C-33.98509443 6.99503148 -31.95818308 6.89664697 -28.8125 6.9375 C-27.91144531 6.94652344 -27.01039062 6.95554687 -26.08203125 6.96484375 C-25.39496094 6.97644531 -24.70789063 6.98804688 -24 7 C-24.268125 6.113125 -24.53625 5.22625 -24.8125 4.3125 C-25 1 -25 1 -22.8125 -1.8125 C-15.49916873 -7.50064654 -6.84072209 -5.5739217 0 0 Z M-14 -2 C-14.66 0.97 -15.32 3.94 -16 7 C-15.34 7 -14.68 7 -14 7 C-16.64 12.61 -19.28 18.22 -22 24 C-16.80439788 24.87769555 -16.80439788 24.87769555 -11.75 25 C-8 25 -8 25 -6 26 C-6.4535179 18.97047248 -8.12059087 13.4150557 -11 7 C-10.34 7 -9.68 7 -9 7 C-9.66 4.03 -10.32 1.06 -11 -2 C-11.99 -2 -12.98 -2 -14 -2 Z M-7 0 C-6.67 1.65 -6.34 3.3 -6 5 C-5.34 4.67 -4.68 4.34 -4 4 C-4.66 2.68 -5.32 1.36 -6 0 C-6.33 0 -6.66 0 -7 0 Z M-20 1 C-20.33 2.32 -20.66 3.64 -21 5 C-20.34 5 -19.68 5 -19 5 C-19.33 3.68 -19.66 2.36 -20 1 Z M-23 8 C-24.15941038 11.47823115 -23.70820884 13.45895578 -23 17 C-20.27573689 14.64722731 -19.1858237 12.37503669 -18 9 C-19.65 8.67 -21.3 8.34 -23 8 Z M-32 12 C-32.59070014 13.94603274 -32.59070014 13.94603274 -33 16 C-32.67 16.33 -32.34 16.66 -32 17 C-32.28833845 20.74839983 -32.63021027 23.40264737 -34.625 26.625 C-36.24120736 28.92218535 -36.24120736 28.92218535 -35.875 31.625 C-34.88729401 34.30591626 -34.42194927 35.46609879 -32 37 C-28.37464024 37.2503577 -28.37464024 37.2503577 -25 37 C-25.33 36.01 -25.66 35.02 -26 34 C-26.23164058 29.75325612 -26.33214424 26.64397537 -24 23 C-24.495 22.46375 -24.99 21.9275 -25.5 21.375 C-27.37489544 18.40641555 -27.23501425 16.44687573 -27 13 C-28.65 12.67 -30.3 12.34 -32 12 Z M-21 27 C-21.99 27.99 -22.98 28.98 -24 30 C-22.86180488 33.65049528 -22.86180488 33.65049528 -20.25 36.3125 C-17.29601524 37.21510645 -15.07058515 37.39198959 -12 37 C-9.532661 34.7793949 -9.03847554 33.56430797 -8.8125 30.25 C-8.874375 29.5075 -8.93625 28.765 -9 28 C-12.45907651 27.13523087 -14.59235658 27.09129509 -18 28 C-18.99 27.67 -19.98 27.34 -21 27 Z M-12 37 C-8 38 -8 38 -8 38 Z " fill="#95BDD6" transform="translate(61,8)"/>
<path d="M0 0 C0 1.65 0 3.3 0 5 C-2.31 4.67 -4.62 4.34 -7 4 C-6.88140625 4.64066406 -6.7628125 5.28132813 -6.640625 5.94140625 C-5.45790273 13.87747271 -5.45790273 13.87747271 -8 17.8125 C-10.28229208 20.75469074 -10.28229208 20.75469074 -9.8125 23.6875 C-9.4103125 24.8321875 -9.4103125 24.8321875 -9 26 C-8.67 27.32 -8.34 28.64 -8 30 C-4.7 30 -1.4 30 2 30 C2 29.34 2 28.68 2 28 C2.66 28.33 3.32 28.66 4 29 C4 29.33 4 29.66 4 30 C10.93 30.495 10.93 30.495 18 31 C18 31.33 18 31.66 18 32 C-10.97447952 34.77837475 -10.97447952 34.77837475 -19 29 C-20.89486772 25.85850878 -21.20337072 23.6606729 -21 20 C-19.68 20 -18.36 20 -17 20 C-16.67 21.32 -16.34 22.64 -16 24 C-15.79503906 23.36191406 -15.59007812 22.72382812 -15.37890625 22.06640625 C-14.97478516 20.82697266 -14.97478516 20.82697266 -14.5625 19.5625 C-14.29566406 18.73878906 -14.02882813 17.91507813 -13.75390625 17.06640625 C-13 15 -13 15 -12 14 C-11.92765321 11.47690571 -12.00364978 8.96851553 -12.0625 6.4453125 C-12 4 -12 4 -11 1 C-9.35422741 0.83273455 -7.70838013 0.66620388 -6.0625 0.5 C-4.68771484 0.36078125 -4.68771484 0.36078125 -3.28515625 0.21875 C-1 0 -1 0 0 0 Z " fill="#7AACD7" transform="translate(36,16)"/>
<path d="M0 0 C0.99 0 1.98 0 3 0 C4.71301774 3.71718079 5.24878195 6.60389349 5.1875 10.6875 C5.18105469 11.64011719 5.17460938 12.59273437 5.16796875 13.57421875 C5 16 5 16 4 18 C5.65 18.66 7.3 19.32 9 20 C8.75 22.375 8.75 22.375 8 25 C4.48532951 27.54985898 0.95865652 27.20293808 -3.25 27.125 C-4.51328125 27.10695313 -5.7765625 27.08890625 -7.078125 27.0703125 C-8.04234375 27.04710938 -9.0065625 27.02390625 -10 27 C-9.01 26.34 -8.02 25.68 -7 25 C-9.64 25 -12.28 25 -15 25 C-14.505 23.515 -14.505 23.515 -14 22 C-11.03 22.33 -8.06 22.66 -5 23 C-2.89185433 18.78370866 -2.82299645 16.60209225 -3 12 C-4.65 12 -6.3 12 -8 12 C-8 11.67 -8 11.34 -8 11 C-5.36 11 -2.72 11 0 11 C0 7.37 0 3.74 0 0 Z M-5 23 C-1 24 -1 24 -1 24 Z " fill="#ADCE7F" transform="translate(54,22)"/>
<path d="M0 0 C6.74841402 -0.26464369 10.76953337 0.7381383 16 5 C15.25 11.75 15.25 11.75 13 14 C12.01 14 11.02 14 10 14 C10.33 15.65 10.66 17.3 11 19 C10.34 19 9.68 19 9 19 C9.33 20.98 9.66 22.96 10 25 C8.09610151 22.14415227 7.30537823 20.0688238 6.375 16.8125 C6.11460938 15.91144531 5.85421875 15.01039062 5.5859375 14.08203125 C5.39257812 13.39496094 5.19921875 12.70789062 5 12 C5.66 12 6.32 12 7 12 C6.34 9.03 5.68 6.06 5 3 C4.01 3 3.02 3 2 3 C2 3.66 2 4.32 2 5 C1.34 5 0.68 5 0 5 C-0.33 5.99 -0.66 6.98 -1 8 C-1 6.68 -1 5.36 -1 4 C-1.99 3.67 -2.98 3.34 -4 3 C-2.68 2.67 -1.36 2.34 0 2 C0 1.34 0 0.68 0 0 Z M9 5 C9.33 6.65 9.66 8.3 10 10 C10.66 9.67 11.32 9.34 12 9 C11.34 7.68 10.68 6.36 10 5 C9.67 5 9.34 5 9 5 Z " fill="#B1CED1" transform="translate(45,3)"/>
<path d="M0 0 C0.556875 0.268125 1.11375 0.53625 1.6875 0.8125 C0.6975 1.1425 -0.2925 1.4725 -1.3125 1.8125 C0.0075 2.4725 1.3275 3.1325 2.6875 3.8125 C2.3575 6.1225 2.0275 8.4325 1.6875 10.8125 C2.3475 10.8125 3.0075 10.8125 3.6875 10.8125 C3.3575 12.4625 3.0275 14.1125 2.6875 15.8125 C1.6975 15.1525 0.7075 14.4925 -0.3125 13.8125 C-2.42530345 13.17957617 -2.42530345 13.17957617 -4.3125 12.8125 C-5.66689668 15.52129335 -5.37751451 17.82183268 -5.3125 20.8125 C-6.9625 21.4725 -8.6125 22.1325 -10.3125 22.8125 C-10.3125 20.5025 -10.3125 18.1925 -10.3125 15.8125 C-9.6525 15.8125 -8.9925 15.8125 -8.3125 15.8125 C-8.3125 14.8225 -8.3125 13.8325 -8.3125 12.8125 C-11.9425 13.1425 -15.5725 13.4725 -19.3125 13.8125 C-18.9825 12.8225 -18.6525 11.8325 -18.3125 10.8125 C-14.3525 10.8125 -10.3925 10.8125 -6.3125 10.8125 C-6.580625 9.925625 -6.84875 9.03875 -7.125 8.125 C-7.3125 4.8125 -7.3125 4.8125 -5.125 1.875 C-2.3125 -0.1875 -2.3125 -0.1875 0 0 Z M-2.3125 4.8125 C-2.6425 6.1325 -2.9725 7.4525 -3.3125 8.8125 C-2.6525 8.8125 -1.9925 8.8125 -1.3125 8.8125 C-1.6425 7.4925 -1.9725 6.1725 -2.3125 4.8125 Z " fill="#86B2D6" transform="translate(43.3125,4.1875)"/>
<path d="M0 0 C0.33 0 0.66 0 1 0 C1 2.97 1 5.94 1 9 C0.34 8.67 -0.32 8.34 -1 8 C-1 10.64 -1 13.28 -1 16 C0.65 16 2.3 16 4 16 C4 16.66 4 17.32 4 18 C4.66 18.66 5.32 19.32 6 20 C2.43954823 21.18681726 -0.43808337 21.09689832 -4.1875 21.0625 C-5.45980469 21.05347656 -6.73210938 21.04445313 -8.04296875 21.03515625 C-9.50669922 21.01775391 -9.50669922 21.01775391 -11 21 C-10.01 20.34 -9.02 19.68 -8 19 C-10.64 19 -13.28 19 -16 19 C-15.505 17.515 -15.505 17.515 -15 16 C-12.03 16.33 -9.06 16.66 -6 17 C-3.89185433 12.78370866 -3.82299645 10.60209225 -4 6 C-5.65 6 -7.3 6 -9 6 C-9 5.67 -9 5.34 -9 5 C-6.36 5 -3.72 5 -1 5 C-0.67 3.35 -0.34 1.7 0 0 Z M-6 17 C-2 18 -2 18 -2 18 Z " fill="#B7D2B8" transform="translate(55,28)"/>
<path d="M0 0 C1.32 0.33 2.64 0.66 4 1 C4 1.66 4 2.32 4 3 C7.3 3 10.6 3 14 3 C14 2.34 14 1.68 14 1 C14.66 1.33 15.32 1.66 16 2 C16 2.33 16 2.66 16 3 C22.93 3.495 22.93 3.495 30 4 C30 4.33 30 4.66 30 5 C22.78921259 5.69144537 15.61681979 6.10512309 8.375 6.125 C7.68857422 6.12951172 7.00214844 6.13402344 6.29492188 6.13867188 C3.25057988 6.12956617 0.91180188 5.97060063 -2 5 C-2 4.01 -2 3.02 -2 2 C-1.34 2 -0.68 2 0 2 C0 1.34 0 0.68 0 0 Z " fill="#76ADBD" transform="translate(24,43)"/>
<path d="M0 0 C-0.46588495 5.70709064 -1.93757784 9.15939723 -5 14 C-6.32 14 -7.64 14 -9 14 C-9.66 12.35 -10.32 10.7 -11 9 C-10.236875 8.79375 -9.47375 8.5875 -8.6875 8.375 C-5.17019373 6.57544796 -4.57824135 4.53225444 -3 1 C-1 0 -1 0 0 0 Z " fill="#96BED5" transform="translate(45,17)"/>
<path d="M0 0 C6.93 0.99 13.86 1.98 21 3 C17.2632157 5.49118953 15.25548181 5.2065226 10.8125 5.125 C9.54019531 5.10695313 8.26789062 5.08890625 6.95703125 5.0703125 C5.49330078 5.03550781 5.49330078 5.03550781 4 5 C4.99 4.34 5.98 3.68 7 3 C4.36 3 1.72 3 -1 3 C-0.67 2.01 -0.34 1.02 0 0 Z " fill="#AACBBC" transform="translate(40,44)"/>
<path d="M0 0 C0 1.65 0 3.3 0 5 C-1.8871875 4.9071875 -1.8871875 4.9071875 -3.8125 4.8125 C-7.16958979 4.76367078 -7.16958979 4.76367078 -10 6.5 C-10.33 6.995 -10.66 7.49 -11 8 C-11 5.69 -11 3.38 -11 1 C-9.35422741 0.83273455 -7.70838013 0.66620388 -6.0625 0.5 C-4.68771484 0.36078125 -4.68771484 0.36078125 -3.28515625 0.21875 C-1 0 -1 0 0 0 Z " fill="#4A90C9" transform="translate(36,16)"/>
<path d="M0 0 C0.99 0 1.98 0 3 0 C2.67 2.31 2.34 4.62 2 7 C2.66 7 3.32 7 4 7 C3.67 8.65 3.34 10.3 3 12 C2.01 11.34 1.02 10.68 0 10 C-1.32567199 9.31822584 -2.65753688 8.64808564 -4 8 C-3.34 7.67 -2.68 7.34 -2 7 C-2.33 6.34 -2.66 5.68 -3 5 C-2.34 5 -1.68 5 -1 5 C-0.67 3.35 -0.34 1.7 0 0 Z " fill="#94BBD6" transform="translate(43,8)"/>
<path d="M0 0 C0.94875 0.350625 1.8975 0.70125 2.875 1.0625 C1.885 1.3925 0.895 1.7225 -0.125 2.0625 C0.205 3.7125 0.535 5.3625 0.875 7.0625 C0.215 7.0625 -0.445 7.0625 -1.125 7.0625 C-0.795 9.0425 -0.465 11.0225 -0.125 13.0625 C-2.02889849 10.20665227 -2.81962177 8.1313238 -3.75 4.875 C-4.14058594 3.52341797 -4.14058594 3.52341797 -4.5390625 2.14453125 C-4.73242188 1.45746094 -4.92578125 0.77039062 -5.125 0.0625 C-3.125 -0.9375 -3.125 -0.9375 0 0 Z " fill="#BFD6B2" transform="translate(55.125,14.9375)"/>
<path d="M0 0 C1.32 0 2.64 0 4 0 C4.66 2.97 5.32 5.94 6 9 C3.525 8.01 3.525 8.01 1 7 C0.67 4.69 0.34 2.38 0 0 Z " fill="#9ABEDF" transform="translate(15,36)"/>
<path d="M0 0 C0.86625 0.37125 0.86625 0.37125 1.75 0.75 C0.76 1.08 -0.23 1.41 -1.25 1.75 C-0.59 2.41 0.07 3.07 0.75 3.75 C-0.24 4.41 -1.23 5.07 -2.25 5.75 C-3.24 7.235 -3.24 7.235 -4.25 8.75 C-5.24 8.75 -6.23 8.75 -7.25 8.75 C-6.89947365 5.59526281 -6.38480924 3.9266466 -4.4375 1.375 C-2.25 -0.25 -2.25 -0.25 0 0 Z " fill="#9CBFDA" transform="translate(43.25,4.25)"/>
<path d="M0 0 C1.32 0.33 2.64 0.66 4 1 C4 1.66 4 2.32 4 3 C6.31 3.33 8.62 3.66 11 4 C11 4.33 11 4.66 11 5 C9.58344207 5.0272415 8.16672955 5.04650467 6.75 5.0625 C5.56664062 5.07990234 5.56664062 5.07990234 4.359375 5.09765625 C2.09308998 5.00385306 0.1711105 4.63241063 -2 4 C-2 3.34 -2 2.68 -2 2 C-1.34 2 -0.68 2 0 2 C0 1.34 0 0.68 0 0 Z " fill="#3285C3" transform="translate(24,43)"/>
<path d="M0 0 C1.54571278 2.31856917 2.79618552 4.50638429 4 7 C2.68 6.67 1.36 6.34 0 6 C0 6.66 0 7.32 0 8 C-0.66 8 -1.32 8 -2 8 C-2 8.66 -2 9.32 -2 10 C-4.475 9.01 -4.475 9.01 -7 8 C-6.67 7.34 -6.34 6.68 -6 6 C-4.515 6.99 -4.515 6.99 -3 8 C-2.67 7.01 -2.34 6.02 -2 5 C-1.34 5 -0.68 5 0 5 C0 3.35 0 1.7 0 0 Z " fill="#9CBFDE" transform="translate(24,37)"/>
<path d="M0 0 C0.639375 0.165 1.27875 0.33 1.9375 0.5 C4.04582216 1.24598544 4.04582216 1.24598544 6 0 C5.67 1.98 5.34 3.96 5 6 C3.68 6 2.36 6 1 6 C0.34 4.35 -0.32 2.7 -1 1 C-0.67 0.67 -0.34 0.34 0 0 Z " fill="#70A7CB" transform="translate(35,25)"/>
<path d="M0 0 C1.10844919 3.32534757 0.84454356 5.62182575 0 9 C-0.99 9 -1.98 9 -3 9 C-3 6.69 -3 4.38 -3 2 C-2.01 2 -1.02 2 0 2 C0 1.34 0 0.68 0 0 Z " fill="#66A0D3" transform="translate(24,33)"/>
<path d="M0 0 C2.64 0 5.28 0 8 0 C5.76204175 3.35693737 4.7810303 3.91970563 1 5 C-1.3125 4.625 -1.3125 4.625 -3 4 C-2.34 3.67 -1.68 3.34 -1 3 C-0.67 2.01 -0.34 1.02 0 0 Z " fill="#A7C8CD" transform="translate(45,32)"/>
<path d="M0 0 C0.99 1.485 0.99 1.485 2 3 C2.99 2.01 3.98 1.02 5 0 C5.33 3.3 5.66 6.6 6 10 C5.34 8.68 4.68 7.36 4 6 C3.34 6.66 2.68 7.32 2 8 C2 7.01 2 6.02 2 5 C1.34 5 0.68 5 0 5 C0 3.35 0 1.7 0 0 Z " fill="#A8C8E3" transform="translate(24,20)"/>
<path d="M0 0 C2.5 1.1875 2.5 1.1875 5 3 C5.3125 5.6875 5.3125 5.6875 5 8 C4.67 6.68 4.34 5.36 4 4 C3.34 4 2.68 4 2 4 C1.67 5.65 1.34 7.3 1 9 C0.34 8.67 -0.32 8.34 -1 8 C-1 4.88742431 -0.82638376 2.89234315 0 0 Z " fill="#CEDFD3" transform="translate(56,5)"/>
<path d="M0 0 C0.66 0 1.32 0 2 0 C2.04254356 1.99954746 2.04080783 4.00041636 2 6 C1 7 1 7 -1.5625 7.0625 C-2.7690625 7.0315625 -2.7690625 7.0315625 -4 7 C-3.67 6.01 -3.34 5.02 -3 4 C-2.34 4 -1.68 4 -1 4 C-0.67 2.68 -0.34 1.36 0 0 Z " fill="#94BD95" transform="translate(58,9)"/>
<path d="M0 0 C-0.99 0.33 -1.98 0.66 -3 1 C-3 1.99 -3 2.98 -3 4 C-3.66 4 -4.32 4 -5 4 C-5.33 4.99 -5.66 5.98 -6 7 C-6 5.68 -6 4.36 -6 3 C-6.99 2.67 -7.98 2.34 -9 2 C-5.86501708 0.14223235 -3.62528568 -0.20140476 0 0 Z " fill="#4E93BE" transform="translate(50,4)"/>
<path d="M0 0 C2.475 0.495 2.475 0.495 5 1 C3.69593116 3.01920337 2.36176581 5.01924973 1 7 C0.67 7 0.34 7 0 7 C0 4.69 0 2.38 0 0 Z " fill="#3281C8" transform="translate(25,17)"/>
<path d="M0 0 C0.33 0 0.66 0 1 0 C1 1.98 1 3.96 1 6 C-0.65 6.66 -2.3 7.32 -4 8 C-4 5.69 -4 3.38 -4 1 C-3.34 1 -2.68 1 -2 1 C-2 2.32 -2 3.64 -2 5 C-1.34 5 -0.68 5 0 5 C0 3.35 0 1.7 0 0 Z " fill="#A9C8DF" transform="translate(37,19)"/>
<path d="M0 0 C2.31 0.66 4.62 1.32 7 2 C6.67 3.32 6.34 4.64 6 6 C6 5.01 6 4.02 6 3 C3.69 3 1.38 3 -1 3 C-0.67 2.01 -0.34 1.02 0 0 Z " fill="#DAE7C4" transform="translate(56,40)"/>
<path d="M0 0 C-0.33 1.65 -0.66 3.3 -1 5 C-1.99 4.34 -2.98 3.68 -4 3 C-5.32567199 2.31822584 -6.65753688 1.64808564 -8 1 C-3.375 -1.125 -3.375 -1.125 0 0 Z " fill="#C9DBE7" transform="translate(47,15)"/>
<path d="M0 0 C1.65 0 3.3 0 5 0 C5.33 0.99 5.66 1.98 6 3 C4.68 2.67 3.36 2.34 2 2 C2 3.65 2 5.3 2 7 C0.5393715 4.35261084 0 3.10551666 0 0 Z " fill="#589B9F" transform="translate(51,5)"/>
<path d="M0 0 C1.98 0 3.96 0 6 0 C6 1.32 6 2.64 6 4 C4.35 4 2.7 4 1 4 C1.66 3.67 2.32 3.34 3 3 C3 2.34 3 1.68 3 1 C2.01 0.67 1.02 0.34 0 0 Z " fill="#9EC857" transform="translate(56,43)"/>
<path d="M0 0 C0.99 0.33 1.98 0.66 3 1 C3.33 2.65 3.66 4.3 4 6 C2.68 5.34 1.36 4.68 0 4 C0 2.68 0 1.36 0 0 Z " fill="#5997D1" transform="translate(17,39)"/>
<path d="M0 0 C-0.33 2.31 -0.66 4.62 -1 7 C-1.33 6.34 -1.66 5.68 -2 5 C-2.66 5 -3.32 5 -4 5 C-3.625 3.0625 -3.625 3.0625 -3 1 C-1 0 -1 0 0 0 Z " fill="#88B6CF" transform="translate(45,17)"/>
<path d="M0 0 C0.94875 0.350625 1.8975 0.70125 2.875 1.0625 C1.885 1.3925 0.895 1.7225 -0.125 2.0625 C-0.455 2.7225 -0.785 3.3825 -1.125 4.0625 C-1.125 3.4025 -1.125 2.7425 -1.125 2.0625 C-1.785 2.0625 -2.445 2.0625 -3.125 2.0625 C-3.455 2.7225 -3.785 3.3825 -4.125 4.0625 C-4.455 2.7425 -4.785 1.4225 -5.125 0.0625 C-3.125 -0.9375 -3.125 -0.9375 0 0 Z " fill="#DDE7E0" transform="translate(55.125,14.9375)"/>
</svg>
